<?xml version="1.0" standalone="no"?>
<!DOCTYPE svg PUBLIC "-//W3C//DTD SVG 20010904//EN"
 "http://www.w3.org/TR/2001/REC-SVG-20010904/DTD/svg10.dtd">
<svg version="1.0" xmlns="http://www.w3.org/2000/svg"
 width="512.000000pt" height="512.000000pt" viewBox="0 0 512.000000 512.000000"
 preserveAspectRatio="xMidYMid meet">

<g transform="translate(0.000000,512.000000) scale(0.100000,-0.100000)"
fill="#000000" stroke="none">
<path d="M1069 4830 c-387 -81 -700 -396 -780 -784 -18 -87 -19 -159 -19
-1486 0 -1327 1 -1399 19 -1486 77 -375 352 -663 741 -777 l75 -22 1423 -3
c1362 -2 1426 -2 1515 17 395 80 707 391 788 786 17 84 19 152 19 1026 l0 936
-23 34 c-32 49 -105 83 -158 74 -53 -9 -115 -64 -129 -113 -6 -22 -10 -190
-10 -413 l0 -376 -304 202 c-325 217 -386 248 -546 281 -100 20 -280 15 -375
-11 -80 -22 -214 -86 -278 -132 -29 -20 -245 -229 -482 -463 -440 -437 -472
-465 -610 -526 -173 -76 -416 -87 -600 -27 -92 29 -168 74 -457 265 l-288 191
0 956 c0 1065 -3 1017 70 1166 66 137 178 249 315 315 148 72 106 70 1115 70
563 0 918 4 939 10 47 13 99 66 112 112 18 68 -19 151 -81 183 -25 13 -157 15
-967 14 -866 0 -945 -2 -1024 -19z"/>
<path d="M3969 4827 c-19 -12 -44 -42 -56 -67 -22 -42 -23 -55 -23 -297 l0
-253 -264 0 c-256 0 -264 -1 -297 -23 -49 -32 -83 -105 -74 -158 9 -53 64
-115 113 -129 21 -5 146 -10 280 -10 l242 0 0 -242 c0 -134 5 -259 10 -280 14
-49 76 -104 129 -113 53 -9 126 25 158 74 22 33 23 41 23 297 l0 264 253 0
c242 0 255 1 297 23 25 12 55 37 67 56 43 65 23 168 -41 214 -30 21 -42 22
-301 27 l-270 5 -5 270 c-5 259 -6 271 -27 301 -46 64 -149 84 -214 41z"/>
<path d="M1686 3825 c-137 -35 -283 -150 -345 -273 -134 -266 -29 -592 233
-720 87 -43 139 -55 236 -55 242 -1 446 152 516 388 21 70 23 208 4 275 -47
171 -171 306 -336 367 -88 31 -222 39 -308 18z"/>
</g>
</svg>
