<svg id="visual" viewBox="0 0 900 900" width="900" height="900" xmlns="http://www.w3.org/2000/svg" xmlns:xlink="http://www.w3.org/1999/xlink" version="1.1"><rect x="0" y="0" width="900" height="900" fill="#001220"></rect><defs><linearGradient id="grad1_0" x1="0%" y1="0%" x2="100%" y2="100%"><stop offset="30%" stop-color="#fbae3c" stop-opacity="1"></stop><stop offset="70%" stop-color="#fbae3c" stop-opacity="1"></stop></linearGradient></defs><defs><linearGradient id="grad1_1" x1="0%" y1="0%" x2="100%" y2="100%"><stop offset="30%" stop-color="#fbae3c" stop-opacity="1"></stop><stop offset="70%" stop-color="#f48350" stop-opacity="1"></stop></linearGradient></defs><defs><linearGradient id="grad1_2" x1="0%" y1="0%" x2="100%" y2="100%"><stop offset="30%" stop-color="#d96162" stop-opacity="1"></stop><stop offset="70%" stop-color="#f48350" stop-opacity="1"></stop></linearGradient></defs><defs><linearGradient id="grad1_3" x1="0%" y1="0%" x2="100%" y2="100%"><stop offset="30%" stop-color="#d96162" stop-opacity="1"></stop><stop offset="70%" stop-color="#af4b6d" stop-opacity="1"></stop></linearGradient></defs><defs><linearGradient id="grad1_4" x1="0%" y1="0%" x2="100%" y2="100%"><stop offset="30%" stop-color="#7c3e6b" stop-opacity="1"></stop><stop offset="70%" stop-color="#af4b6d" stop-opacity="1"></stop></linearGradient></defs><defs><linearGradient id="grad1_5" x1="0%" y1="0%" x2="100%" y2="100%"><stop offset="30%" stop-color="#7c3e6b" stop-opacity="1"></stop><stop offset="70%" stop-color="#49335c" stop-opacity="1"></stop></linearGradient></defs><defs><linearGradient id="grad1_6" x1="0%" y1="0%" x2="100%" y2="100%"><stop offset="30%" stop-color="#1d2540" stop-opacity="1"></stop><stop offset="70%" stop-color="#49335c" stop-opacity="1"></stop></linearGradient></defs><defs><linearGradient id="grad1_7" x1="0%" y1="0%" x2="100%" y2="100%"><stop offset="30%" stop-color="#1d2540" stop-opacity="1"></stop><stop offset="70%" stop-color="#001220" stop-opacity="1"></stop></linearGradient></defs><defs><linearGradient id="grad2_0" x1="0%" y1="0%" x2="100%" y2="100%"><stop offset="30%" stop-color="#fbae3c" stop-opacity="1"></stop><stop offset="70%" stop-color="#fbae3c" stop-opacity="1"></stop></linearGradient></defs><defs><linearGradient id="grad2_1" x1="0%" y1="0%" x2="100%" y2="100%"><stop offset="30%" stop-color="#f48350" stop-opacity="1"></stop><stop offset="70%" stop-color="#fbae3c" stop-opacity="1"></stop></linearGradient></defs><defs><linearGradient id="grad2_2" x1="0%" y1="0%" x2="100%" y2="100%"><stop offset="30%" stop-color="#f48350" stop-opacity="1"></stop><stop offset="70%" stop-color="#d96162" stop-opacity="1"></stop></linearGradient></defs><defs><linearGradient id="grad2_3" x1="0%" y1="0%" x2="100%" y2="100%"><stop offset="30%" stop-color="#af4b6d" stop-opacity="1"></stop><stop offset="70%" stop-color="#d96162" stop-opacity="1"></stop></linearGradient></defs><defs><linearGradient id="grad2_4" x1="0%" y1="0%" x2="100%" y2="100%"><stop offset="30%" stop-color="#af4b6d" stop-opacity="1"></stop><stop offset="70%" stop-color="#7c3e6b" stop-opacity="1"></stop></linearGradient></defs><defs><linearGradient id="grad2_5" x1="0%" y1="0%" x2="100%" y2="100%"><stop offset="30%" stop-color="#49335c" stop-opacity="1"></stop><stop offset="70%" stop-color="#7c3e6b" stop-opacity="1"></stop></linearGradient></defs><defs><linearGradient id="grad2_6" x1="0%" y1="0%" x2="100%" y2="100%"><stop offset="30%" stop-color="#49335c" stop-opacity="1"></stop><stop offset="70%" stop-color="#1d2540" stop-opacity="1"></stop></linearGradient></defs><defs><linearGradient id="grad2_7" x1="0%" y1="0%" x2="100%" y2="100%"><stop offset="30%" stop-color="#001220" stop-opacity="1"></stop><stop offset="70%" stop-color="#1d2540" stop-opacity="1"></stop></linearGradient></defs><g transform="translate(900, 0)"><path d="M0 572.8C-58.3 553.6 -116.6 534.4 -165 507.9C-213.4 481.3 -251.8 447.5 -306.8 422.3C-361.9 397.2 -433.5 380.7 -463.4 336.7C-493.3 292.6 -481.4 220.8 -492.6 160.1C-503.9 99.3 -538.3 49.7 -572.8 0L0 0Z" fill="#0c1c30"></path><path d="M0 501.2C-51 484.4 -102.1 467.6 -144.4 444.4C-186.7 421.2 -220.3 391.5 -268.5 369.5C-316.6 347.5 -379.3 333.2 -405.4 294.6C-431.6 256 -421.2 193.2 -431.1 140.1C-440.9 86.9 -471 43.5 -501.2 0L0 0Z" fill="#312c4f"></path><path d="M0 429.6C-43.7 415.2 -87.5 400.8 -123.8 380.9C-160 361 -188.8 335.6 -230.1 316.7C-271.4 297.9 -325.1 285.6 -347.5 252.5C-369.9 219.4 -361 165.6 -369.5 120.1C-377.9 74.5 -403.8 37.3 -429.6 0L0 0Z" fill="#623965"></path><path d="M0 358C-36.5 346 -72.9 334 -103.1 317.4C-133.4 300.8 -157.4 279.7 -191.8 263.9C-226.2 248.2 -270.9 238 -289.6 210.4C-308.3 182.9 -300.9 138 -307.9 100C-314.9 62.1 -336.5 31 -358 0L0 0Z" fill="#96446e"></path><path d="M0 286.4C-29.2 276.8 -58.3 267.2 -82.5 253.9C-106.7 240.7 -125.9 223.7 -153.4 211.2C-180.9 198.6 -216.7 190.4 -231.7 168.3C-246.6 146.3 -240.7 110.4 -246.3 80C-252 49.7 -269.2 24.8 -286.4 0L0 0Z" fill="#c55469"></path><path d="M0 214.8C-21.9 207.6 -43.7 200.4 -61.9 190.4C-80 180.5 -94.4 167.8 -115.1 158.4C-135.7 148.9 -162.6 142.8 -173.8 126.2C-185 109.7 -180.5 82.8 -184.7 60C-189 37.3 -201.9 18.6 -214.8 0L0 0Z" fill="#e9705a"></path><path d="M0 143.2C-14.6 138.4 -29.2 133.6 -41.3 127C-53.3 120.3 -62.9 111.9 -76.7 105.6C-90.5 99.3 -108.4 95.2 -115.8 84.2C-123.3 73.1 -120.3 55.2 -123.2 40C-126 24.8 -134.6 12.4 -143.2 0L0 0Z" fill="#fa9845"></path><path d="M0 71.6C-7.3 69.2 -14.6 66.8 -20.6 63.5C-26.7 60.2 -31.5 55.9 -38.4 52.8C-45.2 49.6 -54.2 47.6 -57.9 42.1C-61.7 36.6 -60.2 27.6 -61.6 20C-63 12.4 -67.3 6.2 -71.6 0L0 0Z" fill="#fbae3c"></path></g><g transform="translate(0, 900)"><path d="M0 -572.8C63.6 -572.4 127.2 -572.1 177 -544.7C226.8 -517.3 262.9 -462.9 309.2 -425.5C355.5 -388.2 411.9 -368.1 453 -329.2C494.2 -290.2 520 -232.6 537.3 -174.6C554.7 -116.6 563.7 -58.3 572.8 0L0 0Z" fill="#0c1c30"></path><path d="M0 -501.2C55.6 -500.9 111.3 -500.6 154.9 -476.6C198.5 -452.7 230 -405 270.5 -372.4C311 -339.7 360.4 -322.1 396.4 -288C432.4 -254 455 -203.5 470.2 -152.8C485.4 -102 493.3 -51 501.2 0L0 0Z" fill="#312c4f"></path><path d="M0 -429.6C47.7 -429.3 95.4 -429.1 132.7 -408.5C170.1 -388 197.2 -347.1 231.9 -319.2C266.6 -291.2 308.9 -276.1 339.8 -246.9C370.6 -217.7 390 -174.4 403 -130.9C416.1 -87.5 422.8 -43.7 429.6 0L0 0Z" fill="#623965"></path><path d="M0 -358C39.7 -357.8 79.5 -357.6 110.6 -340.5C141.8 -323.3 164.3 -289.3 193.2 -266C222.2 -242.6 257.5 -230 283.2 -205.7C308.9 -181.4 325 -145.4 335.8 -109.1C346.7 -72.9 352.3 -36.4 358 0L0 0Z" fill="#96446e"></path><path d="M0 -286.4C31.8 -286.2 63.6 -286.1 88.5 -272.4C113.4 -258.7 131.4 -231.4 154.6 -212.8C177.7 -194.1 206 -184 226.5 -164.6C247.1 -145.1 260 -116.3 268.7 -87.3C277.4 -58.3 281.9 -29.2 286.4 0L0 0Z" fill="#c55469"></path><path d="M0 -214.8C23.8 -214.7 47.7 -214.5 66.4 -204.3C85.1 -194 98.6 -173.6 115.9 -159.6C133.3 -145.6 154.5 -138 169.9 -123.4C185.3 -108.8 195 -87.2 201.5 -65.5C208 -43.7 211.4 -21.9 214.8 0L0 0Z" fill="#e9705a"></path><path d="M0 -143.2C15.9 -143.1 31.8 -143 44.2 -136.2C56.7 -129.3 65.7 -115.7 77.3 -106.4C88.9 -97.1 103 -92 113.3 -82.3C123.5 -72.6 130 -58.1 134.3 -43.6C138.7 -29.2 140.9 -14.6 143.2 0L0 0Z" fill="#fa9845"></path><path d="M0 -71.6C7.9 -71.6 15.9 -71.5 22.1 -68.1C28.4 -64.7 32.9 -57.9 38.6 -53.2C44.4 -48.5 51.5 -46 56.6 -41.1C61.8 -36.3 65 -29.1 67.2 -21.8C69.3 -14.6 70.5 -7.3 71.6 0L0 0Z" fill="#fbae3c"></path></g></svg>