<?xml version="1.0" standalone="no"?>
<!DOCTYPE svg PUBLIC "-//W3C//DTD SVG 20010904//EN"
 "http://www.w3.org/TR/2001/REC-SVG-20010904/DTD/svg10.dtd">
<svg version="1.0" xmlns="http://www.w3.org/2000/svg"
 width="128.000000pt" height="128.000000pt" viewBox="0 0 128.000000 128.000000"
 preserveAspectRatio="xMidYMid meet">
<g transform="translate(0.000000,128.000000) scale(0.100000,-0.100000)"
fill="#000000" stroke="none">
<path d="M433 1260 c-18 -11 -33 -24 -33 -30 0 -5 -15 -10 -33 -10 -18 0 -42
-7 -53 -15 -14 -11 -49 -15 -134 -15 -122 0 -144 -8 -169 -57 -8 -15 -11 -171
-11 -513 0 -426 2 -495 16 -521 27 -52 60 -59 292 -59 196 0 210 -1 227 -20
17 -19 31 -20 362 -20 330 0 344 1 363 20 19 19 20 33 20 328 l0 307 -78 78
-77 77 -73 0 -72 0 0 150 c0 159 -9 198 -49 220 -11 5 -71 10 -133 10 -83 1
-118 4 -132 15 -11 8 -35 15 -53 15 -18 0 -33 5 -33 10 0 16 -62 50 -90 50
-14 0 -40 -9 -57 -20z m95 -36 c12 -8 22 -21 22 -28 0 -17 22 -26 61 -26 29 0
30 -2 27 -37 l-3 -38 -145 0 -145 0 -3 38 c-3 36 -3 37 32 37 20 0 41 7 48 16
49 60 66 66 106 38z m-228 -94 c0 -19 -7 -20 -93 -20 -59 0 -97 -4 -105 -12
-9 -9 -12 -130 -12 -484 0 -421 2 -473 16 -478 9 -3 103 -6 210 -6 187 0 194
-1 194 -20 0 -19 -7 -20 -220 -20 l-220 0 -15 24 c-14 20 -15 85 -13 515 3
474 4 493 22 507 14 10 50 14 128 14 101 0 108 -1 108 -20z m620 0 c18 -18 20
-33 20 -170 0 -143 -1 -150 -20 -150 -19 0 -20 7 -20 128 0 171 0 172 -126
172 -87 0 -94 1 -94 20 0 19 7 20 110 20 97 0 112 -2 130 -20z m-595 -70 c4
-6 70 -10 165 -10 95 0 161 4 165 10 3 6 48 10 101 10 l94 0 0 -130 0 -130
-92 0 -93 0 -77 -77 -78 -78 0 -242 0 -243 -190 0 -190 0 0 450 0 450 94 0
c53 0 98 -4 101 -10z m493 -302 c-3 -7 -13 -37 -23 -65 l-19 -53 -110 0 -110
0 64 65 64 65 69 0 c51 0 68 -3 65 -12z m129 -53 c13 -32 23 -61 23 -62 0 -2
-34 -3 -75 -3 l-74 0 13 38 c34 93 35 93 63 90 23 -3 31 -12 50 -63z m223 0
l65 -66 -109 3 -110 3 -23 60 c-13 32 -23 61 -23 62 0 2 31 3 68 3 l68 0 64
-65z m-400 -179 c0 -51 4 -77 14 -85 9 -8 51 -11 122 -9 l109 3 5 80 5 80 108
3 107 3 0 -269 c0 -195 -3 -271 -12 -280 -17 -17 -649 -17 -666 0 -9 9 -12 83
-12 273 0 144 3 265 7 268 3 4 53 7 110 7 l103 0 0 -74z m210 9 l0 -65 -85 0
-85 0 0 65 0 65 85 0 85 0 0 -65z"/>
<path d="M336 905 c-36 -55 -49 -64 -61 -45 -10 17 -35 11 -35 -8 0 -20 39
-62 58 -62 15 0 102 130 102 152 0 34 -27 18 -64 -37z"/>
<path d="M334 645 c-34 -51 -39 -54 -54 -40 -44 40 -56 -6 -12 -48 15 -15 31
-27 34 -27 9 0 98 139 98 155 0 32 -31 13 -66 -40z"/>
<path d="M337 395 c-37 -55 -50 -64 -62 -45 -10 17 -35 11 -35 -8 0 -25 45
-66 64 -59 21 8 98 125 94 144 -6 32 -25 23 -61 -32z"/>
<path d="M604 216 c-3 -7 -4 -38 -2 -67 l3 -54 78 -3 c50 -2 84 1 93 9 17 14
19 100 2 117 -18 18 -167 16 -174 -2z m146 -56 c0 -30 -1 -30 -55 -30 -54 0
-55 0 -55 30 0 30 1 30 55 30 54 0 55 0 55 -30z"/>
<path d="M995 210 c-13 -14 -15 -23 -7 -32 6 -7 12 -29 14 -48 4 -45 35 -55
43 -13 3 15 9 40 14 55 7 20 5 31 -8 42 -23 21 -34 20 -56 -4z"/>
<path d="M1119 214 c-10 -12 -10 -20 -1 -35 7 -10 12 -35 12 -54 0 -28 4 -35
20 -35 17 0 20 7 20 40 0 22 5 40 10 40 14 0 13 33 -2 48 -17 17 -43 15 -59
-4z"/>
</g>
</svg>
