<?xml version="1.0" standalone="no"?>
<!DOCTYPE svg PUBLIC "-//W3C//DTD SVG 20010904//EN"
 "http://www.w3.org/TR/2001/REC-SVG-20010904/DTD/svg10.dtd">
<svg version="1.0" xmlns="http://www.w3.org/2000/svg"
 width="128.000000pt" height="128.000000pt" viewBox="0 0 128.000000 128.000000"
 preserveAspectRatio="xMidYMid meet">

<g transform="translate(0.000000,128.000000) scale(0.100000,-0.100000)"
fill="#000000" stroke="none">
<path d="M594 1172 c-21 -14 -32 -46 -27 -81 l5 -36 -59 -17 c-150 -43 -267
-184 -289 -347 l-7 -51 423 0 423 0 -7 51 c-22 162 -139 303 -288 347 l-58 17
0 46 c0 32 -6 51 -18 62 -19 17 -78 23 -98 9z m-128 -265 c2 -7 -15 -34 -39
-59 -25 -25 -53 -68 -63 -94 -18 -50 -32 -67 -46 -58 -25 16 23 125 81 183 43
43 58 49 67 28z"/>
<path d="M134 589 c-3 -6 15 -33 42 -60 l48 -49 416 0 416 0 48 49 c27 27 45
54 42 60 -10 16 -1002 16 -1012 0z"/>
<path d="M505 423 c-27 -8 -102 -17 -165 -21 l-115 -7 0 -125 0 -125 75 -5
c49 -4 113 -18 187 -43 l112 -38 148 26 c81 14 161 28 176 31 33 7 193 146
202 175 10 29 -20 69 -52 69 -15 0 -53 -20 -94 -50 -65 -49 -73 -52 -183 -71
-86 -14 -121 -17 -136 -9 -25 13 -26 30 -2 30 9 0 60 5 112 10 77 8 98 14 113
31 22 27 22 51 -1 79 -14 18 -39 24 -152 40 -158 23 -160 23 -225 3z"/>
</g>
</svg>
