<?xml version="1.0" standalone="no"?>
<!DOCTYPE svg PUBLIC "-//W3C//DTD SVG 20010904//EN"
 "http://www.w3.org/TR/2001/REC-SVG-20010904/DTD/svg10.dtd">
<svg version="1.0" xmlns="http://www.w3.org/2000/svg"
 width="128.000000pt" height="128.000000pt" viewBox="0 0 128.000000 128.000000"
 preserveAspectRatio="xMidYMid meet">
<g transform="translate(0.000000,128.000000) scale(0.100000,-0.100000)"
fill="#000000" stroke="none">
<path d="M134 1269 c-45 -13 -112 -83 -124 -130 -7 -25 -10 -208 -8 -522 l3
-483 25 -37 c14 -21 43 -50 64 -65 l39 -27 347 -3 c310 -3 349 -1 364 13 18
18 20 43 6 65 -8 13 -62 16 -349 20 l-341 5 -27 28 -28 27 0 480 0 480 28 27
27 28 480 0 480 0 27 -28 28 -27 3 -337 c2 -223 6 -341 14 -350 14 -17 63 -17
77 1 9 10 11 107 9 363 l-3 350 -25 36 c-14 21 -43 50 -64 65 l-39 27 -491 2
c-278 1 -505 -2 -522 -8z"/>
<path d="M272 1034 c-26 -18 -28 -46 -6 -68 13 -14 61 -16 374 -16 313 0 361
2 374 16 22 22 20 50 -6 68 -34 24 -702 24 -736 0z"/>
<path d="M272 834 c-26 -18 -28 -46 -6 -68 13 -14 61 -16 374 -16 313 0 361 2
374 16 22 22 20 50 -6 68 -34 24 -702 24 -736 0z"/>
<path d="M272 634 c-26 -18 -28 -46 -6 -68 12 -13 41 -16 149 -16 141 0 165 7
165 50 0 39 -37 50 -165 50 -93 0 -126 -4 -143 -16z"/>
<path d="M689 576 c-9 -18 -7 -37 5 -80 9 -31 23 -82 32 -113 15 -53 28 -70
148 -192 145 -148 202 -191 254 -191 74 0 152 76 152 149 0 56 -35 103 -187
251 l-148 145 -100 28 c-122 34 -142 34 -156 3z m178 -115 c28 -8 62 -35 128
-101 l90 -90 -38 -37 -37 -38 -89 89 c-76 76 -90 95 -103 143 -13 43 -13 53
-2 49 7 -3 30 -10 51 -15z m309 -296 c11 -45 -37 -80 -76 -55 -12 8 -9 15 20
45 40 42 48 43 56 10z"/>
</g>
</svg>
