<?xml version="1.0" encoding="UTF-8"?>
<svg version="1.1" xmlns="http://www.w3.org/2000/svg" width="64" height="64">
<path d="M0 0 C2.4375 1.5 2.4375 1.5 4 4 C4.171463 5.32815783 4.29270631 6.66335101 4.375 8 C4.47986291 10.09552011 4.47986291 10.09552011 5 12 C7.74311006 14.21791439 7.74311006 14.21791439 11 16 C16.68979494 21.94842198 18.10010449 27.17882414 18.75390625 35.14453125 C18.81040615 37.01307206 18.81040615 37.01307206 20 38 C20.43839055 41.38186995 20.48172213 44.62270898 20 48 C17.80977082 50.82424288 16.16982793 52.41508603 13 54 C11.21268076 54.0908238 9.42194511 54.11753799 7.63232422 54.11352539 C6.51131317 54.11344986 5.39030212 54.11337433 4.23532104 54.11329651 C3.02071198 54.10813522 1.80610291 54.10297394 0.5546875 54.09765625 C-0.68546112 54.0962413 -1.92560974 54.09482635 -3.20333862 54.09336853 C-6.50118133 54.08871096 -9.79897546 54.07972439 -13.09680176 54.06866455 C-16.46166387 54.05843731 -19.82653308 54.05386809 -23.19140625 54.04882812 C-29.79428993 54.03778269 -36.39714099 54.02103247 -43 54 C-43.38218767 52.34385343 -43.71395102 50.67542976 -44 49 C-43 48 -43 48 -39.62109375 47.90234375 C-38.22652923 47.90901631 -36.83198257 47.92097468 -35.4375 47.9375 C-34.72658203 47.94201172 -34.01566406 47.94652344 -33.28320312 47.95117188 C-31.52209987 47.96299136 -29.76103964 47.98092737 -28 48 C-28 44.7 -28 41.4 -28 38 C-29.65 38 -31.3 38 -33 38 C-33.38218767 36.34385343 -33.71395102 34.67542976 -34 33 C-33 32 -33 32 -29.4375 31.9375 C-28.303125 31.958125 -27.16875 31.97875 -26 32 C-26 30.68 -26 29.36 -26 28 C-29.96 27.67 -33.92 27.34 -38 27 C-38.33 25.35 -38.66 23.7 -39 22 C-38 21 -38 21 -34.40234375 20.90234375 C-32.91403133 20.9090178 -31.42573568 20.92097817 -29.9375 20.9375 C-29.17888672 20.94201172 -28.42027344 20.94652344 -27.63867188 20.95117188 C-25.75908129 20.9629932 -23.87953101 20.98092922 -22 21 C-21.7215625 20.38511719 -21.443125 19.77023438 -21.15625 19.13671875 C-19.3231847 15.74926362 -16.40913407 13.70456704 -13 12 C-12.87625 10.741875 -12.7525 9.48375 -12.625 8.1875 C-12.30765499 5.2897759 -12.02312706 4.03700329 -10.4375 1.5 C-6.94629869 -0.64843158 -3.99273389 -0.78706869 0 0 Z M-5 6 C-5.33 7.32 -5.66 8.64 -6 10 C-4.68 10 -3.36 10 -2 10 C-2.33 8.68 -2.66 7.36 -3 6 C-3.66 6 -4.32 6 -5 6 Z M-17.4375 23.9375 C-19.37872528 27.1692902 -19.37872528 27.1692902 -19 32 C-9.1 32 0.8 32 11 32 C10.16578396 24.86051429 10.16578396 24.86051429 6 20 C-2.70623625 14.26179884 -11.09536488 16.29441408 -17.4375 23.9375 Z M-20.93579102 39.36254883 C-22.25710925 41.03444188 -22.25710925 41.03444188 -21.8125 43.5625 C-21.15372967 46.14441272 -21.15372967 46.14441272 -19 48 C-14.74257862 48.39863496 -10.47052426 48.32902541 -6.1965332 48.31567383 C-4.07385794 48.31251689 -1.95258064 48.33595761 0.16992188 48.36132812 C1.51822741 48.36360146 2.86653669 48.36430446 4.21484375 48.36328125 C5.44323975 48.36626221 6.67163574 48.36924316 7.93725586 48.37231445 C10.97116165 48.24836398 10.97116165 48.24836398 12.93579102 46.63745117 C14.25710925 44.96555812 14.25710925 44.96555812 13.8125 42.4375 C13.15372967 39.85558728 13.15372967 39.85558728 11 38 C6.74257862 37.60136504 2.47052426 37.67097459 -1.8034668 37.68432617 C-3.92614206 37.68748311 -6.04741936 37.66404239 -8.16992188 37.63867188 C-9.51822741 37.63639854 -10.86653669 37.63569554 -12.21484375 37.63671875 C-13.44323975 37.63373779 -14.67163574 37.63075684 -15.93725586 37.62768555 C-18.97116165 37.75163602 -18.97116165 37.75163602 -20.93579102 39.36254883 Z " fill="#000000" transform="translate(44,5)"/>
<path d="M0 0 C1.93166016 0.01740234 1.93166016 0.01740234 3.90234375 0.03515625 C5.19269531 0.04417969 6.48304687 0.05320313 7.8125 0.0625 C8.81152344 0.07410156 9.81054688 0.08570313 10.83984375 0.09765625 C11.22203142 1.75380282 11.55379477 3.42222649 11.83984375 5.09765625 C10.83984375 6.09765625 10.83984375 6.09765625 7.6796875 6.1953125 C5.74802734 6.17791016 5.74802734 6.17791016 3.77734375 6.16015625 C2.48699219 6.15113281 1.19664063 6.14210938 -0.1328125 6.1328125 C-1.13183594 6.12121094 -2.13085938 6.10960937 -3.16015625 6.09765625 C-3.54234392 4.44150968 -3.87410727 2.77308601 -4.16015625 1.09765625 C-3.16015625 0.09765625 -3.16015625 0.09765625 0 0 Z " fill="#000000" transform="translate(28.16015625,44.90234375)"/>
</svg>
