<?xml version="1.0" standalone="no"?>
<!DOCTYPE svg PUBLIC "-//W3C//DTD SVG 20010904//EN"
 "http://www.w3.org/TR/2001/REC-SVG-20010904/DTD/svg10.dtd">
<svg version="1.0" xmlns="http://www.w3.org/2000/svg"
 width="64.000000pt" height="64.000000pt" viewBox="0 0 64.000000 64.000000"
 preserveAspectRatio="xMidYMid meet">

<g transform="translate(0.000000,64.000000) scale(0.100000,-0.100000)"
fill="#D66105" stroke="none">
<path d="M295 524 c-19 -20 -16 -43 8 -58 20 -13 50 2 55 26 3 16 -23 48 -38
48 -5 0 -16 -7 -25 -16z"/>
<path d="M250 431 c-115 -38 -200 -133 -212 -236 l-3 -30 283 -3 282 -2 0 32
c-1 78 -68 171 -155 215 -53 27 -149 39 -195 24z m30 -49 c0 -4 -16 -14 -36
-21 -42 -15 -110 -74 -119 -102 -7 -22 -25 -26 -25 -6 0 22 69 96 109 117 38
20 71 26 71 12z"/>
<path d="M15 120 c17 -19 31 -20 305 -20 274 0 288 1 305 20 18 20 17 20 -305
20 -322 0 -323 0 -305 -20z"/>
</g>
</svg>
