<?xml version="1.0" standalone="no"?>
<!DOCTYPE svg PUBLIC "-//W3C//DTD SVG 20010904//EN"
 "http://www.w3.org/TR/2001/REC-SVG-20010904/DTD/svg10.dtd">
<svg version="1.0" xmlns="http://www.w3.org/2000/svg"
 width="64.000000pt" height="64.000000pt" viewBox="0 0 64.000000 64.000000"
 preserveAspectRatio="xMidYMid meet">

<g transform="translate(0.000000,64.000000) scale(0.100000,-0.100000)"
fill="#000000" stroke="none">
<path d="M100 615 c0 -28 -16 -34 -50 -21 -10 4 -22 -4 -34 -24 -16 -29 -17
-33 -2 -49 20 -22 20 -30 -1 -53 -16 -17 -15 -20 4 -46 12 -15 27 -25 35 -23
32 9 42 4 48 -19 5 -20 13 -26 43 -28 33 -3 37 -1 37 21 0 27 19 40 40 27 20
-12 37 -2 51 32 11 26 10 32 -4 40 -21 11 -21 26 -1 49 14 16 14 20 -1 49 -12
23 -21 30 -33 25 -37 -14 -52 -8 -52 20 0 23 -4 25 -40 25 -36 0 -40 -2 -40
-25z m87 -91 c15 -24 15 -29 2 -53 -27 -49 -101 -33 -101 22 0 59 66 80 99 31z"/>
<path d="M347 499 c-39 -20 -45 -37 -25 -68 15 -25 -3 -49 -40 -53 -24 -3 -27
-8 -30 -47 -4 -47 7 -61 44 -61 26 0 38 -24 24 -50 -16 -30 -12 -39 32 -61 40
-20 42 -20 55 -3 7 10 13 21 13 26 0 19 40 6 57 -18 l19 -26 43 22 c36 18 42
25 36 43 -15 48 -11 62 17 65 37 4 50 24 46 69 -3 33 -7 38 -30 41 -39 5 -54
26 -39 58 16 36 15 38 -31 64 -40 22 -42 22 -55 5 -7 -11 -13 -22 -13 -27 0
-17 -49 -8 -55 11 -9 28 -26 31 -68 10z m152 -125 c26 -34 26 -54 0 -88 -28
-36 -80 -36 -108 0 -12 15 -21 34 -21 44 0 34 39 70 75 70 24 0 39 -7 54 -26z"/>
<path d="M115 286 c-3 -9 -7 -23 -10 -31 -3 -10 -15 -14 -37 -13 -26 3 -35 -2
-47 -25 -15 -26 -15 -29 2 -41 21 -16 22 -42 2 -50 -21 -8 -19 -29 6 -60 17
-22 24 -24 41 -15 22 12 34 4 40 -26 3 -16 11 -20 43 -20 32 0 40 4 43 20 6
30 18 38 41 26 18 -10 23 -8 41 21 l19 32 -22 24 -22 23 24 18 c23 17 23 19 7
50 -15 27 -22 32 -48 29 -27 -3 -33 1 -38 22 -5 20 -13 26 -43 28 -27 2 -39
-1 -42 -12z m80 -106 c40 -45 -20 -109 -71 -75 -26 17 -33 62 -12 83 18 18 63
14 83 -8z"/>
</g>
</svg>
